<svg xmlns="http://www.w3.org/2000/svg" id="flag-icons-sa" viewBox="0 0 640 480">
  <defs>
    <clipPath id="sa-a">
      <path fill-opacity=".7" d="M0 0h682.7v512H0z"/>
    </clipPath>
  </defs>
  <g fill-rule="evenodd" clip-path="url(#sa-a)" transform="scale(.9375)">
    <path fill="#199d00" d="M0 0h1024v512H0z"/>
    <path fill="#fff" d="M357 195.6c-7.7 15.3-25.1 12.9-25.1 12.9l-3.8-2.4-3.2 3.4 2.9 1.4s-14.7 10.7-5.8 18.6c9 7.9 15.5 2.4 15.5 2.4s.8 3.1 4.1 6.3c3.3 3.3 12.2 2.8 12.2 2.8l-1 3.9 4.1.7s-4.3 3.7-4.3 6.1c0 2.5 5.1 4.9 5.1 4.9s-5.1 4.9-2.5 8.3c2.6 3.4 7.3 2.6 7.3 2.6s-2.5 3.2-1.1 5.8c1.4 2.6 6.9 1.5 6.9 1.5s.1 4.1 2.3 5.3c2.2 1.2 8.2-1.3 8.2-1.3s2.4 3.4 6.1 3.8c3.7.4 6.5-3.4 6.5-3.4s5.2 3.5 8.8 1.1c3.6-2.4 2.1-7.3 2.1-7.3s4.9.4 6.5-1.6c1.6-2 .4-6-1.4-7.5 0 0 5.6-1.3 5.6-4.4 0-3.1-3.3-6.3-3.3-6.3s3.8-1.4 3.8-4.8c0-3.4-4.4-6.7-4.4-6.7s10.9-5.2 7.8-14.1c-3.1-8.9-12.8-5.9-12.8-5.9s-.2-3.9-4-6.7c-3.7-2.8-10.1-1.6-10.1-1.6s-1.9-4.3-5.5-5.8c-3.6-1.5-8.1.9-8.1.9s-2.5-3.2-6.1-3.2c-3.6 0-5.3 3.4-5.3 3.4s-10.3-8.2-15.5 0z"/>
    <path fill="#fff" d="M374.3 233.5h276.8v16.5H374.3z"/>
    <path fill="#fff" d="M374.3 267h276.8v16.5H374.3z"/>
    <path fill="#fff" d="M374.3 300.5h276.8V317H374.3z"/>
  </g>
</svg>
